<svg width="219" height="360" viewBox="0 0 219 360" fill="none" xmlns="http://www.w3.org/2000/svg">
<g clip-path="url(#clip0_3_141)">
<path d="M107.841 1.04062C92.7884 13.7531 84.5533 22.4437 75.6244 35.0437C49.9235 71.2969 41.7789 115.706 51.7636 165.094C55.8963 185.541 63.7091 207.872 73.1508 226.294L75.0814 230.062L109.198 230.063H143.315L145.397 226.012C156.86 203.625 165.638 175.95 168.895 151.875C171.037 136.041 171.309 119.25 169.65 105.469C166.15 76.2469 155.381 50.3719 137.282 27.7031C129.982 18.5906 122.23 10.8 111.732 2.02499C110.405 0.928116 109.229 -9.14186e-06 109.168 -9.14186e-06C109.108 -9.14186e-06 108.505 0.478116 107.841 1.04062ZM114.538 87.6094C126.181 89.6625 135.11 97.3687 138.217 108C138.821 110.081 138.911 111.009 138.881 115.172C138.881 120.628 138.429 122.597 136.407 126.675C134.779 129.909 133.029 132.244 130.344 134.747C126.543 138.291 121.838 140.822 116.679 142.116C114.568 142.622 113.391 142.734 109.198 142.734C103.286 142.706 100.873 142.228 96.0764 140.034C87.962 136.35 82.1401 129.487 80.0587 121.078C79.214 117.759 79.2744 111.825 80.1793 108.45C82.6831 99.1125 90.2545 91.5187 100.119 88.4531C104.191 87.2156 110.224 86.85 114.538 87.6094ZM113.572 151.734C114.749 151.959 116.951 152.719 118.489 153.422C126.453 157.106 131.008 165.656 129.288 173.812C127.871 180.534 122.743 186.075 115.774 188.353C112.577 189.422 107.539 189.591 104.281 188.747C98.2785 187.228 93.5727 183.684 90.9785 178.734C89.5607 176.091 88.9273 173.419 88.9574 170.156C88.9574 166.922 89.5004 164.869 91.1595 161.719C92.155 159.778 92.9091 158.878 94.9905 156.937C96.5893 155.447 98.2785 154.181 99.3946 153.647C101.144 152.803 104.342 151.734 105.88 151.509C107.63 151.228 111.612 151.341 113.572 151.734ZM112.486 198.141C119.153 199.631 123.919 206.156 122.803 212.344C122.139 216.084 120.148 219.066 117.041 221.034C112.728 223.706 107.358 224.044 102.833 221.878C101.265 221.147 98.4595 218.672 97.5244 217.209C93.5426 210.853 96.0161 202.528 102.924 199.237C106.031 197.747 109.078 197.409 112.486 198.141Z" fill="#50A3D9"/>
<path d="M166.271 184.837C165.577 186.891 164.25 191.531 163.345 195.159C160.63 205.903 157.945 212.766 151.671 224.775C149.982 228.009 148.685 230.681 148.745 230.737C149.198 231.103 156.286 235.406 161.837 238.697C185.547 252.731 200.871 259.931 210.222 261.422C217.341 262.575 220.146 259.847 218.517 253.406C216.557 245.531 208.352 232.144 194.566 214.172C188.02 205.678 169.921 183.459 167.9 181.462C167.598 181.181 167.267 181.884 166.271 184.837Z" fill="#E99923"/>
<path d="M47.45 186.244C30.1351 206.663 15.8066 225.394 8.29547 237.516C5.4901 242.016 2.26241 248.4 1.17646 251.522C0.361998 253.856 0.181006 254.841 0.150841 256.838C0.150841 259.453 0.482659 260.184 2.17191 261.366C3.19753 262.097 6.84753 262.322 9.41158 261.844C16.7417 260.522 29.3207 254.953 45.5496 245.869C54.4182 240.891 70.2851 231.384 70.2851 231.019C70.2851 230.906 69.0483 228.516 67.5702 225.675C63.2566 217.491 60.2702 210.881 58.3698 205.312C57.9475 203.991 56.6806 199.575 55.6248 195.469C53.845 188.634 51.7335 181.687 51.4318 181.687C51.3715 181.687 49.5917 183.741 47.45 186.244Z" fill="#E99923"/>
<path d="M80.8128 236.728C71.4917 245.841 64.5235 257.569 61.2355 269.691C59.4558 276.272 58.7921 281.334 58.7921 288.562C58.7921 295.284 59.2748 299.559 60.8132 306C61.6578 309.487 64.4632 317.812 64.8252 317.812C64.9459 317.812 65.338 316.716 65.7302 315.337C70.1041 299.531 75.2624 288.928 79.757 286.453C81.5066 285.497 83.4975 285.497 85.2471 286.453C92.5169 290.419 100.088 312.216 107.388 350.156C108.233 354.572 108.987 358.481 109.108 358.875C109.289 359.662 109.198 360.084 111.31 349.172C117.795 315.647 124.492 295.031 131.038 288.366C133.029 286.341 134.175 285.75 136.045 285.75C141.324 285.75 146.664 294.722 151.912 312.412C153.692 318.516 153.511 318.066 153.903 317.447C154.446 316.519 156.256 311.259 157.161 307.969C160.721 294.975 160.66 281.194 157.01 268.734C153.541 256.978 146.784 245.644 138.308 237.403L135.382 234.562H109.198H83.045L80.8128 236.728Z" fill="#D73227"/>
</g>
<defs>
<clipPath id="clip0_3_141">
<rect width="219" height="360" fill="white"/>
</clipPath>
</defs>
</svg>
